<svg xmlns="http://www.w3.org/2000/svg" viewBox="0 0 800 600">
  <!-- Background -->
  <rect width="800" height="600" fill="#f3f4f6" />
  
  <!-- Browser window frame -->
  <rect x="50" y="50" width="700" height="500" rx="10" fill="white" stroke="#e5e7eb" stroke-width="2" />
  <rect x="50" y="50" width="700" height="40" rx="10" fill="#f9fafb" stroke="#e5e7eb" stroke-width="2" />
  
  <!-- Browser dots -->
  <circle cx="80" cy="70" r="6" fill="#ef4444" />
  <circle cx="100" cy="70" r="6" fill="#f59e0b" />
  <circle cx="120" cy="70" r="6" fill="#10b981" />
  
  <!-- URL bar -->
  <rect x="150" y="60" width="550" height="20" rx="5" fill="#f3f4f6" stroke="#e5e7eb" stroke-width="1" />
  <text x="165" y="74" font-family="Arial" font-size="12" fill="#6b7280">http://localhost:3000/interview</text>
  
  <!-- Content area -->
  <rect x="70" y="110" width="660" height="420" rx="5" fill="white" />
  
  <!-- Header -->
  <rect x="70" y="110" width="660" height="50" fill="#3b82f6" rx="5" />
  <text x="100" y="142" font-family="Arial" font-size="18" font-weight="bold" fill="white">ระบบสัมภาษณ์นักศึกษา</text>
  
  <!-- Navigation -->
  <rect x="280" y="110" width="100" height="50" fill="#2563eb" rx="0" />
  <text x="305" y="142" font-family="Arial" font-size="14" fill="white">หน้าแรก</text>
  
  <rect x="380" y="110" width="100" height="50" fill="#1d4ed8" rx="0" />
  <text x="400" y="142" font-family="Arial" font-size="14" fill="white">สัมภาษณ์</text>
  
  <rect x="480" y="110" width="100" height="50" fill="#2563eb" rx="0" />
  <text x="505" y="142" font-family="Arial" font-size="14" fill="white">รายงาน</text>
  
  <!-- Page title -->
  <text x="100" y="195" font-family="Arial" font-size="22" font-weight="bold" fill="#111827">สัมภาษณ์นักศึกษา</text>
  
  <!-- Interviewer section -->
  <rect x="100" y="210" width="600" height="70" rx="5" fill="white" stroke="#e5e7eb" stroke-width="2" />
  <text x="120" y="240" font-family="Arial" font-size="16" font-weight="bold" fill="#111827">ข้อมูลผู้สัมภาษณ์</text>
  <rect x="120" y="250" width="180" height="20" rx="3" fill="#f3f4f6" />
  <text x="125" y="264" font-family="Arial" font-size="12" fill="#6b7280">รหัส</text>
  <text x="160" y="264" font-family="Arial" font-size="12" fill="#111827">5001</text>
  
  <rect x="310" y="250" width="180" height="20" rx="3" fill="#f3f4f6" />
  <text x="315" y="264" font-family="Arial" font-size="12" fill="#6b7280">ชื่อ-นามสกุล</text>
  <text x="390" y="264" font-family="Arial" font-size="12" fill="#111827">อาจารย์ ดร.สมศักดิ์ ใจดี</text>
  
  <rect x="500" y="250" width="180" height="20" rx="3" fill="#f3f4f6" />
  <text x="505" y="264" font-family="Arial" font-size="12" fill="#6b7280">คณะ</text>
  <text x="535" y="264" font-family="Arial" font-size="12" fill="#111827">วิทยาศาสตร์</text>
  
  <!-- Student section -->
  <rect x="100" y="290" width="600" height="70" rx="5" fill="white" stroke="#e5e7eb" stroke-width="2" />
  <text x="120" y="320" font-family="Arial" font-size="16" font-weight="bold" fill="#111827">ค้นหานักศึกษา</text>
  <rect x="120" y="330" width="400" height="20" rx="3" fill="#f3f4f6" stroke="#d1d5db" stroke-width="1" />
  <text x="125" y="344" font-family="Arial" font-size="12" fill="#9ca3af">กรอกรหัสนักศึกษา</text>
  <rect x="530" y="330" width="80" height="20" rx="3" fill="#3b82f6" />
  <text x="550" y="344" font-family="Arial" font-size="12" fill="white">ค้นหา</text>
  
  <!-- Student info -->
  <rect x="100" y="370" width="600" height="120" rx="5" fill="white" stroke="#e5e7eb" stroke-width="2" />
  <text x="120" y="400" font-family="Arial" font-size="16" font-weight="bold" fill="#111827">ข้อมูลนักศึกษา</text>
  
  <rect x="120" y="410" width="180" height="20" rx="3" fill="#f3f4f6" />
  <text x="125" y="424" font-family="Arial" font-size="12" fill="#6b7280">รหัสนักศึกษา</text>
  <text x="200" y="424" font-family="Arial" font-size="12" fill="#111827">6512345678</text>
  
  <rect x="310" y="410" width="180" height="20" rx="3" fill="#f3f4f6" />
  <text x="315" y="424" font-family="Arial" font-size="12" fill="#6b7280">ชื่อ-นามสกุล</text>
  <text x="380" y="424" font-family="Arial" font-size="12" fill="#111827">นายสมชาย ใจกล้า</text>
  
  <rect x="120" y="440" width="180" height="20" rx="3" fill="#f3f4f6" />
  <text x="125" y="454" font-family="Arial" font-size="12" fill="#6b7280">คณะ</text>
  <text x="160" y="454" font-family="Arial" font-size="12" fill="#111827">วิทยาศาสตร์</text>
  
  <rect x="310" y="440" width="180" height="20" rx="3" fill="#f3f4f6" />
  <text x="315" y="454" font-family="Arial" font-size="12" fill="#6b7280">หลักสูตร</text>
  <text x="368" y="454" font-family="Arial" font-size="12" fill="#111827">วิทยาการคอมพิวเตอร์</text>
  
  <rect x="500" y="410" width="180" height="20" rx="3" fill="#f3f4f6" />
  <text x="505" y="424" font-family="Arial" font-size="12" fill="#6b7280">วิทยาเขต</text>
  <text x="560" y="424" font-family="Arial" font-size="12" fill="#111827">หาดใหญ่</text>
  
  <rect x="500" y="440" width="180" height="20" rx="3" fill="#f3f4f6" />
  <text x="505" y="454" font-family="Arial" font-size="12" fill="#6b7280">ระดับ</text>
  <text x="540" y="454" font-family="Arial" font-size="12" fill="#111827">ปริญญาตรี</text>
  
  <!-- Interview form (partial) -->
  <rect x="100" y="500" width="600" height="80" rx="5" fill="white" stroke="#e5e7eb" stroke-width="2" />
  <text x="120" y="530" font-family="Arial" font-size="16" font-weight="bold" fill="#111827">แบบสัมภาษณ์</text>
  <text x="120" y="550" font-family="Arial" font-size="14" fill="#111827">1. นักศึกษามีปัญหาด้านการเรียนหรือไม่?</text>
  
  <circle cx="140" cy="570" r="8" fill="white" stroke="#3b82f6" stroke-width="2" />
  <text x="155" y="574" font-family="Arial" font-size="12" fill="#111827">ไม่มี</text>
  
  <circle cx="220" cy="570" r="8" fill="white" stroke="#3b82f6" stroke-width="2" />
  <text x="235" y="574" font-family="Arial" font-size="12" fill="#111827">มี</text>
</svg>