<svg xmlns="http://www.w3.org/2000/svg" viewBox="0 0 900 800">
  <!-- Background -->
  <rect width="900" height="800" fill="#f5f5f5" />
  
  <!-- Title -->
  <text x="450" y="40" font-family="Arial" font-size="24" font-weight="bold" text-anchor="middle" fill="#333">Activity Diagram: กระบวนการสัมภาษณ์นักศึกษา</text>
  
  <!-- Swimlanes -->
  <rect x="50" y="80" width="350" height="700" fill="#e3f2fd" stroke="#1976d2" stroke-width="1" fill-opacity="0.3" />
  <rect x="400" y="80" width="450" height="700" fill="#f1f8e9" stroke="#558b2f" stroke-width="1" fill-opacity="0.3" />
  
  <text x="225" y="100" font-family="Arial" font-size="16" font-weight="bold" text-anchor="middle" fill="#1976d2">ผู้สัมภาษณ์</text>
  <text x="625" y="100" font-family="Arial" font-size="16" font-weight="bold" text-anchor="middle" fill="#558b2f">ระบบ</text>
  
  <line x1="50" y1="110" x2="800" y2="110" stroke="#777" stroke-width="1" stroke-dasharray="5,5" />
  
  <!-- Start -->
  <circle cx="225" cy="140" r="15" fill="#1976d2" />
  <circle cx="225" cy="140" r="10" fill="#e3f2fd" />
  
  <!-- Activities -->
  <!-- 1. เข้าสู่ระบบ -->
  <rect x="150" y="170" width="150" height="40" rx="10" fill="#bbdefb" stroke="#1976d2" stroke-width="2" />
  <text x="225" y="195" font-family="Arial" font-size="14" text-anchor="middle" fill="#333">เข้าสู่ระบบสัมภาษณ์</text>
  
  <!-- 2. ระบบแสดงหน้าสัมภาษณ์ -->
  <rect x="525" y="170" width="200" height="40" rx="10" fill="#c5e1a5" stroke="#558b2f" stroke-width="2" />
  <text x="625" y="195" font-family="Arial" font-size="14" text-anchor="middle" fill="#333">แสดงหน้าสัมภาษณ์</text>
  
  <!-- 3. กรอกรหัสผู้สัมภาษณ์ -->
  <rect x="150" y="240" width="150" height="40" rx="10" fill="#bbdefb" stroke="#1976d2" stroke-width="2" />
  <text x="225" y="265" font-family="Arial" font-size="14" text-anchor="middle" fill="#333">กรอกรหัสผู้สัมภาษณ์</text>
  
  <!-- 4. ค้นหาข้อมูลผู้สัมภาษณ์ -->
  <rect x="525" y="240" width="200" height="40" rx="10" fill="#c5e1a5" stroke="#558b2f" stroke-width="2" />
  <text x="625" y="265" font-family="Arial" font-size="14" text-anchor="middle" fill="#333">ค้นหาข้อมูลผู้สัมภาษณ์</text>
  
  <!-- 5. Decision: พบข้อมูลผู้สัมภาษณ์? -->
  <polygon points="625,310 675,340 625,370 575,340" fill="#fff9c4" stroke="#fbc02d" stroke-width="2" />
  <text x="625" y="345" font-family="Arial" font-size="12" text-anchor="middle" fill="#333">พบข้อมูลผู้สัมภาษณ์?</text>
  
  <!-- 6. แสดงข้อความผิดพลาด -->
  <rect x="525" y="390" width="200" height="40" rx="10" fill="#ffccbc" stroke="#e64a19" stroke-width="2" />
  <text x="625" y="415" font-family="Arial" font-size="14" text-anchor="middle" fill="#333">แสดงข้อความผิดพลาด</text>
  
  <!-- 7. แสดงข้อมูลผู้สัมภาษณ์ -->
  <rect x="525" y="310" width="200" height="40" rx="10" fill="#c5e1a5" stroke="#558b2f" stroke-width="2" />
  <text x="625" y="335" font-family="Arial" font-size="14" text-anchor="middle" fill="#333">แสดงข้อมูลผู้สัมภาษณ์</text>
  
  <!-- 8. กรอกรหัสนักศึกษา -->
  <rect x="150" y="450" width="150" height="40" rx="10" fill="#bbdefb" stroke="#1976d2" stroke-width="2" />
  <text x="225" y="475" font-family="Arial" font-size="14" text-anchor="middle" fill="#333">กรอกรหัสนักศึกษา</text>
  
  <!-- 9. ค้นหาข้อมูลนักศึกษา -->
  <rect x="525" y="450" width="200" height="40" rx="10" fill="#c5e1a5" stroke="#558b2f" stroke-width="2" />
  <text x="625" y="475" font-family="Arial" font-size="14" text-anchor="middle" fill="#333">ค้นหาข้อมูลนักศึกษา</text>
  
  <!-- 10. Decision: พบข้อมูลนักศึกษา? -->
  <polygon points="625,520 675,550 625,580 575,550" fill="#fff9c4" stroke="#fbc02d" stroke-width="2" />
  <text x="625" y="555" font-family="Arial" font-size="12" text-anchor="middle" fill="#333">พบข้อมูลนักศึกษา?</text>
  
  <!-- 11. แสดงข้อความผิดพลาด -->
  <rect x="700" y="530" width="120" height="40" rx="10" fill="#ffccbc" stroke="#e64a19" stroke-width="2" />
  <text x="760" y="555" font-family="Arial" font-size="14" text-anchor="middle" fill="#333">แสดงข้อผิดพลาด</text>
  
  <!-- 12. Decision: สัมภาษณ์แล้ว? -->
  <polygon points="625,600 675,630 625,660 575,630" fill="#fff9c4" stroke="#fbc02d" stroke-width="2" />
  <text x="625" y="635" font-family="Arial" font-size="12" text-anchor="middle" fill="#333">สัมภาษณ์แล้ว?</text>
  
  <!-- 13. แสดงข้อความว่าสัมภาษณ์แล้ว -->
  <rect x="430" y="630" width="120" height="40" rx="10" fill="#ffccbc" stroke="#e64a19" stroke-width="2" />
  <text x="490" y="645" font-family="Arial" font-size="11" text-anchor="middle" fill="#333">สัมภาษณ์แล้ว</text>
  <text x="490" y="660" font-family="Arial" font-size="11" text-anchor="middle" fill="#333">แสดงข้อความ</text>
  
  <!-- 14. แสดงข้อมูลนักศึกษา -->
  <rect x="525" y="680" width="200" height="40" rx="10" fill="#c5e1a5" stroke="#558b2f" stroke-width="2" />
  <text x="625" y="705" font-family="Arial" font-size="14" text-anchor="middle" fill="#333">แสดงข้อมูลนักศึกษาและแบบสอบถาม</text>
  
  <!-- 15. กรอกข้อมูลการสัมภาษณ์ -->
  <rect x="150" y="680" width="150" height="40" rx="10" fill="#bbdefb" stroke="#1976d2" stroke-width="2" />
  <text x="225" y="705" font-family="Arial" font-size="14" text-anchor="middle" fill="#333">กรอกข้อมูลการสัมภาษณ์</text>
  
  <!-- 16. บันทึกข้อมูล -->
  <rect x="150" y="740" width="150" height="40" rx="10" fill="#bbdefb" stroke="#1976d2" stroke-width="2" />
  <text x="225" y="765" font-family="Arial" font-size="14" text-anchor="middle" fill="#333">บันทึกข้อมูล</text>
  
  <!-- 17. บันทึกข้อมูลลงฐานข้อมูล -->
  <rect x="525" y="740" width="200" height="40" rx="10" fill="#c5e1a5" stroke="#558b2f" stroke-width="2" />
  <text x="625" y="765" font-family="Arial" font-size="14" text-anchor="middle" fill="#333">บันทึกข้อมูลลงฐานข้อมูล</text>
  
  <!-- Arrows -->
  <line x1="225" y1="155" x2="225" y2="170" stroke="#333" stroke-width="2" marker-end="url(#arrowhead)" />
  <line x1="225" y1="210" x2="225" y2="240" stroke="#333" stroke-width="2" marker-end="url(#arrowhead)" />
  <line x1="225" y1="210" x2="525" y2="190" stroke="#333" stroke-width="2" marker-end="url(#arrowhead)" />
  <line x1="625" y1="210" x2="625" y2="240" stroke="#333" stroke-width="2" marker-end="url(#arrowhead)" />
  <line x1="225" y1="280" x2="525" y2="260" stroke="#333" stroke-width="2" marker-end="url(#arrowhead)" />
  <line x1="625" y1="280" x2="625" y2="310" stroke="#333" stroke-width="2" marker-end="url(#arrowhead)" />
  
  <!-- Decision flow -->
  <line x1="625" y1="370" x2="625" y2="390" stroke="#333" stroke-width="2" marker-end="url(#arrowhead)" />
  <text x="630" y="380" font-family="Arial" font-size="12" fill="#333">ไม่พบ</text>
  
  <line x1="625" y1="430" x2="225" y2="450" stroke="#333" stroke-width="2" marker-end="url(#arrowhead)" stroke-dasharray="5,3" />
  <line x1="575" y1="340" x2="225" y2="450" stroke="#333" stroke-width="2" marker-end="url(#arrowhead)" />
  <text x="400" y="380" font-family="Arial" font-size="12" fill="#333">พบ</text>
  
  <line x1="225" y1="490" x2="525" y2="470" stroke="#333" stroke-width="2" marker-end="url(#arrowhead)" />
  <line x1="625" y1="490" x2="625" y2="520" stroke="#333" stroke-width="2" marker-end="url(#arrowhead)" />
  
  <line x1="675" y1="550" x2="700" y2="550" stroke="#333" stroke-width="2" marker-end="url(#arrowhead)" />
  <text x="685" y="540" font-family="Arial" font-size="12" fill="#333">ไม่พบ</text>
  
  <line x1="760" y1="570" x2="760" y2="600" stroke="#333" stroke-width="2" marker-end="url(#arrowhead)" stroke-dasharray="5,3" />
  <line x1="760" y1="600" x2="225" y2="240" stroke="#333" stroke-width="2" marker-end="url(#arrowhead)" stroke-dasharray="5,3" />
  
  <line x1="625" y1="580" x2="625" y2="600" stroke="#333" stroke-width="2" marker-end="url(#arrowhead)" />
  <text x="630" y="590" font-family="Arial" font-size="12" fill="#333">พบ</text>
  
  <line x1="575" y1="630" x2="550" y2="630" stroke="#333" stroke-width="2" marker-end="url(#arrowhead)" />
  <text x="560" y="620" font-family="Arial" font-size="12" fill="#333">ใช่</text>
  
  <line x1="490" y1="670" x2="490" y2="700" stroke="#333" stroke-width="2" marker-end="url(#arrowhead)" stroke-dasharray="5,3" />
  <line x1="490" y1="700" x2="225" y2="450" stroke="#333" stroke-width="2" marker-end="url(#arrowhead)" stroke-dasharray="5,3" />
  
  <line x1="625" y1="660" x2="625" y2="680" stroke="#333" stroke-width="2" marker-end="url(#arrowhead)" />
  <text x="630" y="670" font-family="Arial" font-size="12" fill="#333">ไม่</text>
  
  <line x1="625" y1="720" x2="225" y2="680" stroke="#333" stroke-width="2" marker-end="url(#arrowhead)" />
  <line x1="225" y1="720" x2="225" y2="740" stroke="#333" stroke-width="2" marker-end="url(#arrowhead)" />
  <line x1="225" y1="780" x2="525" y2="760" stroke="#333" stroke-width="2" marker-end="url(#arrowhead)" />
  
  <!-- Arrow definition -->
  <defs>
    <marker id="arrowhead" markerWidth="10" markerHeight="7" refX="0" refY="3.5" orient="auto">
      <polygon points="0 0, 10 3.5, 0 7" fill="#333" />
    </marker>
  </defs>
</svg>