<svg xmlns="http://www.w3.org/2000/svg" viewBox="0 0 900 740">
  <!-- Background -->
  <rect width="900" height="740" fill="#f5f5f5" />
  
  <!-- Title -->
  <text x="450" y="40" font-family="Arial" font-size="24" font-weight="bold" text-anchor="middle" fill="#333">Activity Diagram: กระบวนการดูรายงานและส่งออกข้อมูล</text>
  
  <!-- Swimlanes -->
  <rect x="50" y="80" width="350" height="640" fill="#fff3e0" stroke="#e65100" stroke-width="1" fill-opacity="0.3" />
  <rect x="400" y="80" width="450" height="640" fill="#e0f7fa" stroke="#006064" stroke-width="1" fill-opacity="0.3" />
  
  <text x="225" y="100" font-family="Arial" font-size="16" font-weight="bold" text-anchor="middle" fill="#e65100">ผู้ใช้งาน</text>
  <text x="625" y="100" font-family="Arial" font-size="16" font-weight="bold" text-anchor="middle" fill="#006064">ระบบ</text>
  
  <line x1="50" y1="110" x2="850" y2="110" stroke="#777" stroke-width="1" stroke-dasharray="5,5" />
  
  <!-- Start -->
  <circle cx="225" cy="140" r="15" fill="#e65100" />
  <circle cx="225" cy="140" r="10" fill="#fff3e0" />
  
  <!-- Activities -->
  <!-- 1. เข้าสู่ระบบ -->
  <rect x="150" y="170" width="150" height="40" rx="10" fill="#ffe0b2" stroke="#e65100" stroke-width="2" />
  <text x="225" y="195" font-family="Arial" font-size="14" text-anchor="middle" fill="#333">เข้าสู่ระบบสัมภาษณ์</text>
  
  <!-- 2. เลือกเมนูรายงาน -->
  <rect x="150" y="240" width="150" height="40" rx="10" fill="#ffe0b2" stroke="#e65100" stroke-width="2" />
  <text x="225" y="265" font-family="Arial" font-size="14" text-anchor="middle" fill="#333">เลือกเมนูรายงาน</text>
  
  <!-- 3. แสดงหน้ารายงาน -->
  <rect x="525" y="240" width="200" height="40" rx="10" fill="#b2ebf2" stroke="#006064" stroke-width="2" />
  <text x="625" y="265" font-family="Arial" font-size="14" text-anchor="middle" fill="#333">แสดงหน้ารายงาน</text>
  
  <!-- 4. ดึงข้อมูลสรุปการสัมภาษณ์ -->
  <rect x="525" y="310" width="200" height="40" rx="10" fill="#b2ebf2" stroke="#006064" stroke-width="2" />
  <text x="625" y="335" font-family="Arial" font-size="14" text-anchor="middle" fill="#333">ดึงข้อมูลสรุปการสัมภาษณ์</text>
  
  <!-- 5. แสดงรายงานสรุป -->
  <rect x="525" y="380" width="200" height="40" rx="10" fill="#b2ebf2" stroke="#006064" stroke-width="2" />
  <text x="625" y="405" font-family="Arial" font-size="14" text-anchor="middle" fill="#333">แสดงรายงานสรุป</text>
  
  <!-- Fork -->
  <rect x="215" y="310" width="20" height="5" fill="#333" />
  <line x1="225" y1="315" x2="225" y2="380" stroke="#333" stroke-width="2" />
  <line x1="225" y1="315" x2="225" y2="520" stroke="#333" stroke-width="2" />
  <line x1="225" y1="315" x2="225" y2="450" stroke="#333" stroke-width="2" />
  
  <!-- 6. เลือกกรองตามคณะ -->
  <rect x="150" y="380" width="150" height="40" rx="10" fill="#ffe0b2" stroke="#e65100" stroke-width="2" />
  <text x="225" y="405" font-family="Arial" font-size="14" text-anchor="middle" fill="#333">เลือกกรองตามคณะ</text>
  
  <!-- 7. ค้นหานักศึกษา -->
  <rect x="150" y="450" width="150" height="40" rx="10" fill="#ffe0b2" stroke="#e65100" stroke-width="2" />
  <text x="225" y="475" font-family="Arial" font-size="14" text-anchor="middle" fill="#333">ค้นหานักศึกษา</text>
  
  <!-- 8. กดปุ่มส่งออก Excel -->
  <rect x="150" y="520" width="150" height="40" rx="10" fill="#ffe0b2" stroke="#e65100" stroke-width="2" />
  <text x="225" y="545" font-family="Arial" font-size="14" text-anchor="middle" fill="#333">กดปุ่มส่งออก Excel</text>
  
  <!-- 9. กรองข้อมูลตามคณะ -->
  <rect x="525" y="380" width="200" height="40" rx="10" fill="#b2ebf2" stroke="#006064" stroke-width="2" />
  <text x="625" y="405" font-family="Arial" font-size="14" text-anchor="middle" fill="#333">กรองข้อมูลตามคณะ</text>
  
  <!-- 10. ค้นหาข้อมูลนักศึกษา -->
  <rect x="525" y="450" width="200" height="40" rx="10" fill="#b2ebf2" stroke="#006064" stroke-width="2" />
  <text x="625" y="475" font-family="Arial" font-size="14" text-anchor="middle" fill="#333">ค้นหาข้อมูลนักศึกษา</text>
  
  <!-- 11. แสดงผลการค้นหา -->
  <rect x="525" y="520" width="200" height="40" rx="10" fill="#b2ebf2" stroke="#006064" stroke-width="2" />
  <text x="625" y="545" font-family="Arial" font-size="14" text-anchor="middle" fill="#333">แสดงผลการค้นหา</text>
  
  <!-- 12. ดึงข้อมูลการสัมภาษณ์ทั้งหมด -->
  <rect x="525" y="590" width="200" height="40" rx="10" fill="#b2ebf2" stroke="#006064" stroke-width="2" />
  <text x="625" y="615" font-family="Arial" font-size="14" text-anchor="middle" fill="#333">ดึงข้อมูลการสัมภาษณ์ทั้งหมด</text>
  
  <!-- 13. สร้างไฟล์ Excel -->
  <rect x="525" y="660" width="200" height="40" rx="10" fill="#b2ebf2" stroke="#006064" stroke-width="2" />
  <text x="625" y="685" font-family="Arial" font-size="14" text-anchor="middle" fill="#333">สร้างไฟล์ Excel</text>
  
  <!-- 14. ดาวน์โหลดไฟล์ -->
  <rect x="150" y="660" width="150" height="40" rx="10" fill="#ffe0b2" stroke="#e65100" stroke-width="2" />
  <text x="225" y="685" font-family="Arial" font-size="14" text-anchor="middle" fill="#333">ดาวน์โหลดไฟล์</text>
  
  <!-- Arrows -->
  <line x1="225" y1="155" x2="225" y2="170" stroke="#333" stroke-width="2" marker-end="url(#arrowhead)" />
  <line x1="225" y1="210" x2="225" y2="240" stroke="#333" stroke-width="2" marker-end="url(#arrowhead)" />
  <line x1="225" y1="280" x2="225" y2="310" stroke="#333" stroke-width="2" marker-end="url(#arrowhead)" />
  <line x1="225" y1="280" x2="525" y2="260" stroke="#333" stroke-width="2" marker-end="url(#arrowhead)" />
  <line x1="625" y1="280" x2="625" y2="310" stroke="#333" stroke-width="2" marker-end="url(#arrowhead)" />
  <line x1="625" y1="350" x2="625" y2="380" stroke="#333" stroke-width="2" marker-end="url(#arrowhead)" />
  
  <line x1="225" y1="420" x2="525" y2="400" stroke="#333" stroke-width="2" marker-end="url(#arrowhead)" />
  <line x1="625" y1="420" x2="225" y2="450" stroke="#333" stroke-width="2" marker-end="url(#arrowhead)" stroke-dasharray="5,3" />
  
  <line x1="225" y1="490" x2="525" y2="470" stroke="#333" stroke-width="2" marker-end="url(#arrowhead)" />
  <line x1="625" y1="490" x2="625" y2="520" stroke="#333" stroke-width="2" marker-end="url(#arrowhead)" />
  <line x1="625" y1="560" x2="225" y2="590" stroke="#333" stroke-width="2" marker-end="url(#arrowhead)" stroke-dasharray="5,3" />
  
  <line x1="225" y1="560" x2="525" y2="590" stroke="#333" stroke-width="2" marker-end="url(#arrowhead)" />
  <line x1="625" y1="630" x2="625" y2="660" stroke="#333" stroke-width="2" marker-end="url(#arrowhead)" />
  <line x1="625" y1="700" x2="225" y2="680" stroke="#333" stroke-width="2" marker-end="url(#arrowhead)" />
  
  <!-- End -->
  <circle cx="225" cy="730" r="15" fill="#e65100" />
  <circle cx="225" cy="730" r="12" fill="#333" />
  <line x1="225" y1="700" x2="225" y2="715" stroke="#333" stroke-width="2" marker-end="url(#arrowhead)" />
  
  <!-- Arrow definition -->
  <defs>
    <marker id="arrowhead" markerWidth="10" markerHeight="7" refX="0" refY="3.5" orient="auto">
      <polygon points="0 0, 10 3.5, 0 7" fill="#333" />
    </marker>
  </defs>
</svg>